HIERARCHY
ROOT __0
{
	OFFSET 0.0 0.0 0.0
	CHANNELS 0
	JOINT Bone.018
	{
		OFFSET 0.509500 -0.220622 0.028540
		CHANNELS 6 Xposition Yposition Zposition Xrotation Yrotation Zrotation
		JOINT Bone
		{
			OFFSET 0.506149 -0.008054 0.369888
			CHANNELS 6 Xposition Yposition Zposition Xrotation Yrotation Zrotation
			JOINT Bone.001
			{
				OFFSET 0.000000 0.000000 1.000000
				CHANNELS 3 Xrotation Yrotation Zrotation
				JOINT Bone.004
				{
					OFFSET -0.364521 0.652781 0.775616
					CHANNELS 6 Xposition Yposition Zposition Xrotation Yrotation Zrotation
					JOINT Bone.005
					{
						OFFSET -0.356881 0.309244 0.164330
						CHANNELS 3 Xrotation Yrotation Zrotation
						End Site
						{
							OFFSET -0.356881 0.309244 0.164330
						}
					}
				}
				JOINT Bone.006
				{
					OFFSET -0.422212 -0.497770 0.758655
					CHANNELS 6 Xposition Yposition Zposition Xrotation Yrotation Zrotation
					JOINT Bone.007
					{
						OFFSET -0.266213 -0.382445 0.181291
						CHANNELS 3 Xrotation Yrotation Zrotation
						End Site
						{
							OFFSET -0.266213 -0.382446 0.181291
						}
					}
				}
				JOINT Bone.013
				{
					OFFSET 0.000000 0.000000 0.952698
					CHANNELS 3 Xrotation Yrotation Zrotation
					JOINT Bone.014
					{
						OFFSET 0.205285 -0.710412 1.753748
						CHANNELS 6 Xposition Yposition Zposition Xrotation Yrotation Zrotation
						JOINT Bone.016
						{
							OFFSET 0.045857 -0.362587 0.645387
							CHANNELS 3 Xrotation Yrotation Zrotation
							End Site
							{
								OFFSET 0.000000 -0.257913 0.694785
							}
						}
					}
					JOINT Bone.015
					{
						OFFSET 0.410408 0.873393 1.732694
						CHANNELS 6 Xposition Yposition Zposition Xrotation Yrotation Zrotation
						JOINT Bone.017
						{
							OFFSET 0.045857 0.473121 0.592752
							CHANNELS 3 Xrotation Yrotation Zrotation
							End Site
							{
								OFFSET 0.000000 0.368447 0.626359
							}
						}
					}
				}
			}
			JOINT Bone.002
			{
				OFFSET 0.013896 0.885125 -0.087000
				CHANNELS 6 Xposition Yposition Zposition Xrotation Yrotation Zrotation
				End Site
				{
					OFFSET 0.000000 0.112638 -0.244244
				}
			}
			JOINT Bone.003
			{
				OFFSET 0.071434 -0.712882 -0.087000
				CHANNELS 6 Xposition Yposition Zposition Xrotation Yrotation Zrotation
				End Site
				{
					OFFSET 0.000000 -0.112638 -0.244244
				}
			}
			JOINT Bone.008
			{
				OFFSET 0.838161 0.309759 0.420272
				CHANNELS 6 Xposition Yposition Zposition Xrotation Yrotation Zrotation
				JOINT Bone.009
				{
					OFFSET 0.664608 0.081861 -0.176081
					CHANNELS 3 Xrotation Yrotation Zrotation
					JOINT Bone.010
					{
						OFFSET 0.025301 0.000247 0.448450
						CHANNELS 3 Xrotation Yrotation Zrotation
						JOINT Bone.011
						{
							OFFSET 0.595587 0.073320 -0.151428
							CHANNELS 3 Xrotation Yrotation Zrotation
							JOINT Bone.012
							{
								OFFSET -0.256761 -0.035219 0.637858
								CHANNELS 3 Xrotation Yrotation Zrotation
								End Site
								{
									OFFSET 0.689728 0.083603 0.031764
								}
							}
						}
					}
				}
			}
		}
	}
	JOINT Bone.019
	{
		OFFSET 3.572273 0.284896 1.609263
		CHANNELS 6 Xposition Yposition Zposition Xrotation Yrotation Zrotation
		End Site
		{
			OFFSET 0.389344 0.000000 0.129781
		}
	}
}
MOTION
Frames: 6
Frame Time: 0.041667
1.923367 -0.220622 0.196287 -0.000006 -65.796592 -0.000004 0.506149 -0.008054 0.369888 -0.000000 0.000000 -0.000000 0.000002 32.842169 -0.000000 -0.664341 0.652781 0.313129 -103.648100 11.231154 -9.217870 -0.000003 0.000001 -0.000006 -0.698942 -0.497771 0.309758 105.217937 -0.800408 -5.373558 -0.000003 0.000000 0.000003 0.000002 27.498570 -0.000000 0.205285 -0.710412 1.753748 0.000001 26.421977 0.000006 0.000002 -0.000001 -0.000000 0.410408 0.873393 1.732693 20.992696 24.022098 -8.005445 0.000000 0.000002 -0.000001 -0.548763 0.885125 0.054192 -0.000035 59.338682 93.344172 -0.443205 -0.712882 -0.081864 0.000036 56.569218 -102.239606 0.838161 0.309759 0.420272 -2.075147 19.435064 -0.302416 -2.006593 19.387191 0.222984 -0.575890 5.689490 -0.189451 -1.425209 12.817717 0.208435 0.720000 -6.147637 -0.137986 3.092996 0.284896 3.382587 0.000000 -0.000000 -0.000000 
1.923367 -0.220622 0.196287 -0.000006 -65.796592 -0.000004 0.506149 -0.008054 0.369888 -0.000000 0.000000 -0.000000 0.000002 32.906813 -0.000000 -0.663757 0.652781 0.311657 -103.648100 11.231157 -9.217874 -0.000005 -0.000001 -0.000003 -0.698359 -0.497771 0.308287 105.217937 -0.800410 -5.373555 -0.000001 0.000001 0.000005 0.000002 27.498570 0.000002 0.205285 -0.710412 1.753749 0.000003 26.421979 0.000002 -0.000000 -0.000004 -0.000001 0.410408 0.873393 1.732694 20.992697 24.022095 -8.005447 -0.000005 0.000002 -0.000001 -0.548763 0.885125 0.054192 -0.000035 59.338682 93.344172 -0.443205 -0.712882 -0.081864 0.000036 56.569218 -102.239606 0.838161 0.309759 0.420272 -2.088895 19.514742 -0.288880 -1.984559 19.193019 0.215748 -0.590486 5.808955 -0.186113 -1.395306 12.581219 0.199959 0.683693 -5.844440 -0.139786 3.090526 0.284896 3.379058 0.000000 -0.000000 -0.000000 
1.923367 -0.220622 0.196287 -0.000006 -65.796592 -0.000004 0.506149 -0.008054 0.369888 -0.000000 0.000000 -0.000000 0.000002 33.102232 -0.000000 -0.661992 0.652781 0.307210 -103.648093 11.231156 -9.217871 -0.000003 -0.000000 -0.000003 -0.696594 -0.497771 0.303840 105.217937 -0.800408 -5.373556 0.000004 0.000003 0.000005 0.000002 27.498570 0.000003 0.205285 -0.710412 1.753748 0.000001 26.421979 0.000005 -0.000000 0.000002 -0.000001 0.410408 0.873393 1.732693 20.992699 24.022096 -8.005445 0.000000 -0.000001 0.000001 -0.548763 0.885125 0.054192 -0.000035 59.338682 93.344172 -0.443205 -0.712882 -0.081864 0.000036 56.569218 -102.239606 0.838161 0.309759 0.420272 -2.130920 19.757097 -0.247804 -1.918342 18.605731 0.194578 -0.634280 6.165693 -0.175737 -1.305596 11.867398 0.175305 0.574501 -4.931370 -0.143903 3.083057 0.284896 3.368389 0.000000 -0.000000 -0.000000 
1.923367 -0.220622 0.196287 -0.000006 -65.796592 -0.000004 0.506149 -0.008054 0.369888 -0.000000 0.000000 -0.000000 0.000002 33.427438 -0.000000 -0.659055 0.652781 0.299810 -103.648100 11.231155 -9.217874 -0.000002 0.000003 -0.000003 -0.693657 -0.497771 0.296440 105.217937 -0.800411 -5.373554 0.000005 0.000002 0.000001 0.000002 27.498570 0.000001 0.205285 -0.710412 1.753748 0.000001 26.421976 0.000004 0.000002 0.000000 0.000000 0.410408 0.873393 1.732694 20.992696 24.022095 -8.005442 0.000002 -0.000000 -0.000001 -0.548763 0.885125 0.054192 -0.000035 59.338682 93.344172 -0.443205 -0.712882 -0.081864 0.000036 56.569218 -102.239606 0.838161 0.309759 0.420272 -2.202404 20.165136 -0.178937 -1.809402 17.627417 0.161671 -0.706066 6.744662 -0.157517 -1.158525 10.683376 0.137458 0.394588 -3.423975 -0.146401 3.070630 0.284896 3.350636 0.000000 -0.000000 -0.000000 
1.923367 -0.220622 0.196287 -0.000006 -65.796592 -0.000004 0.506149 -0.008054 0.369888 -0.000000 0.000000 -0.000000 0.000002 33.875720 -0.000000 -0.655008 0.652781 0.289612 -103.648093 11.231156 -9.217869 -0.000002 0.000003 -0.000009 -0.689610 -0.497771 0.286241 105.217937 -0.800411 -5.373557 0.000001 0.000000 0.000003 0.000002 27.498574 -0.000001 0.205285 -0.710412 1.753748 0.000003 26.421977 0.000005 -0.000000 -0.000003 0.000000 0.410408 0.873393 1.732694 20.992697 24.022095 -8.005447 0.000000 0.000002 -0.000002 -0.548763 0.885125 0.054192 -0.000035 59.338682 93.344172 -0.443205 -0.712882 -0.081864 0.000036 56.569218 -102.239606 0.838161 0.309759 0.420272 -2.304184 20.737214 -0.082899 -1.661545 16.276155 0.120962 -0.802900 7.513374 -0.130501 -0.959953 9.058252 0.091596 0.149795 -1.370676 -0.141154 3.053503 0.284896 3.326168 0.000000 -0.000000 -0.000000 
1.923367 -0.220622 0.196287 -0.000006 -65.796592 -0.000004 0.506149 -0.008054 0.369888 -0.000000 0.000000 -0.000000 0.000002 34.432961 -0.000001 -0.649978 0.652781 0.276936 -103.648100 11.231155 -9.217873 -0.000003 0.000001 -0.000003 -0.684579 -0.497771 0.273566 105.217930 -0.800415 -5.373560 -0.000001 -0.000001 -0.000002 0.000002 27.498574 0.000001 0.205285 -0.710412 1.753749 0.000003 26.421974 0.000002 0.000003 0.000001 0.000001 0.410408 0.873393 1.732694 20.992696 24.022095 -8.005446 0.000000 0.000001 0.000000 -0.548763 0.885125 0.054192 -0.000035 59.338682 93.344172 -0.443205 -0.712882 -0.081864 0.000036 56.569218 -102.239606 0.838161 0.309759 0.420272 -2.436126 21.463777 0.038445 -1.480917 14.590262 0.077653 -0.920099 8.423088 -0.093919 -0.718983 7.047092 0.044393 -0.150374 1.142851 -0.120952 3.032216 0.284896 3.295759 0.000000 -0.000000 -0.000000 
